<svg xmlns="http://www.w3.org/2000/svg" width="150" height="35" viewBox="0 0 150 35" fill="none"><g clip-path="url(#clip0_26_30185)"><path d="M0.5 30.5059L10.9647 19.8873H0.5V14.2554H10.9647V3.53906H17.4593V13.4927L28.0203 3.53906H36.5L26.2281 13.9621H36.5V20.5718H26.1317V30.5059H19.348V20.1807L9.55782 30.5059H0.5Z" fill="#14A077"></path></g><path d="M49.67 29.0225V25.2725H50.96C51.92 25.2725 52.68 25.0025 53.24 24.4625C53.82 23.9025 54.11 23.1625 54.11 22.2425V6.67246H58.22V22.0925C58.22 23.4725 57.92 24.6825 57.32 25.7225C56.74 26.7625 55.9 27.5725 54.8 28.1525C53.72 28.7325 52.44 29.0225 50.96 29.0225H49.67ZM70.0873 29.3825C68.4873 29.3825 67.0273 29.0125 65.7073 28.2725C64.4073 27.5325 63.3673 26.5225 62.5873 25.2425C61.8273 23.9625 61.4473 22.5025 61.4473 20.8625C61.4473 19.2225 61.8273 17.7625 62.5873 16.4825C63.3673 15.2025 64.4073 14.1925 65.7073 13.4525C67.0073 12.7125 68.4673 12.3425 70.0873 12.3425C71.6873 12.3425 73.1373 12.7125 74.4373 13.4525C75.7373 14.1925 76.7673 15.2025 77.5273 16.4825C78.3073 17.7425 78.6973 19.2025 78.6973 20.8625C78.6973 22.5025 78.3073 23.9625 77.5273 25.2425C76.7473 26.5225 75.7073 27.5325 74.4073 28.2725C73.1073 29.0125 71.6673 29.3825 70.0873 29.3825ZM70.0873 25.7825C70.9673 25.7825 71.7373 25.5725 72.3973 25.1525C73.0773 24.7325 73.6073 24.1525 73.9873 23.4125C74.3873 22.6525 74.5873 21.8025 74.5873 20.8625C74.5873 19.9025 74.3873 19.0625 73.9873 18.3425C73.6073 17.6025 73.0773 17.0225 72.3973 16.6025C71.7373 16.1625 70.9673 15.9425 70.0873 15.9425C69.1873 15.9425 68.3973 16.1625 67.7173 16.6025C67.0373 17.0225 66.4973 17.6025 66.0973 18.3425C65.7173 19.0625 65.5273 19.9025 65.5273 20.8625C65.5273 21.8025 65.7173 22.6525 66.0973 23.4125C66.4973 24.1525 67.0373 24.7325 67.7173 25.1525C68.3973 25.5725 69.1873 25.7825 70.0873 25.7825ZM90.5877 29.3825C89.4077 29.3825 88.3177 29.1525 87.3177 28.6925C86.3377 28.2125 85.5577 27.5325 84.9777 26.6525L85.3677 25.8725V29.0225H81.6777V6.31246H85.6077V15.9425L85.0077 15.1325C85.5677 14.2525 86.3277 13.5725 87.2877 13.0925C88.2477 12.5925 89.3577 12.3425 90.6177 12.3425C92.1577 12.3425 93.5477 12.7225 94.7877 13.4825C96.0277 14.2425 97.0077 15.2625 97.7277 16.5425C98.4677 17.8225 98.8377 19.2625 98.8377 20.8625C98.8377 22.4425 98.4777 23.8825 97.7577 25.1825C97.0377 26.4825 96.0577 27.5125 94.8177 28.2725C93.5777 29.0125 92.1677 29.3825 90.5877 29.3825ZM90.1377 25.7825C91.0377 25.7825 91.8377 25.5725 92.5377 25.1525C93.2377 24.7325 93.7777 24.1525 94.1577 23.4125C94.5577 22.6725 94.7577 21.8225 94.7577 20.8625C94.7577 19.9025 94.5577 19.0625 94.1577 18.3425C93.7777 17.6025 93.2377 17.0225 92.5377 16.6025C91.8377 16.1625 91.0377 15.9425 90.1377 15.9425C89.2777 15.9425 88.4977 16.1525 87.7977 16.5725C87.1177 16.9925 86.5777 17.5825 86.1777 18.3425C85.7977 19.0825 85.6077 19.9225 85.6077 20.8625C85.6077 21.8225 85.7977 22.6725 86.1777 23.4125C86.5777 24.1525 87.1177 24.7325 87.7977 25.1525C88.4977 25.5725 89.2777 25.7825 90.1377 25.7825ZM108.981 29.2025C107.141 29.2025 105.711 28.7025 104.691 27.7025C103.691 26.6825 103.191 25.2525 103.191 23.4125V16.2125H100.371V12.7025H100.671C101.471 12.7025 102.091 12.4925 102.531 12.0725C102.971 11.6525 103.191 11.0425 103.191 10.2425V8.98246H107.121V12.7025H110.871V16.2125H107.121V23.2025C107.121 23.7425 107.211 24.2025 107.391 24.5825C107.591 24.9625 107.891 25.2525 108.291 25.4525C108.711 25.6525 109.241 25.7525 109.881 25.7525C110.021 25.7525 110.181 25.7425 110.361 25.7225C110.561 25.7025 110.751 25.6825 110.931 25.6625V29.0225C110.651 29.0625 110.331 29.1025 109.971 29.1425C109.611 29.1825 109.281 29.2025 108.981 29.2025ZM121.527 29.3825C119.847 29.3825 118.377 29.0025 117.117 28.2425C115.857 27.4825 114.877 26.4525 114.177 25.1525C113.477 23.8525 113.127 22.4125 113.127 20.8325C113.127 19.1925 113.477 17.7425 114.177 16.4825C114.897 15.2025 115.867 14.1925 117.087 13.4525C118.327 12.7125 119.707 12.3425 121.227 12.3425C122.507 12.3425 123.627 12.5525 124.587 12.9725C125.567 13.3925 126.397 13.9725 127.077 14.7125C127.757 15.4525 128.277 16.3025 128.637 17.2625C128.997 18.2025 129.177 19.2225 129.177 20.3225C129.177 20.6025 129.157 20.8925 129.117 21.1925C129.097 21.4925 129.047 21.7525 128.967 21.9725H116.367V18.9725H126.747L124.887 20.3825C125.067 19.4625 125.017 18.6425 124.737 17.9225C124.477 17.2025 124.037 16.6325 123.417 16.2125C122.817 15.7925 122.087 15.5825 121.227 15.5825C120.407 15.5825 119.677 15.7925 119.037 16.2125C118.397 16.6125 117.907 17.2125 117.567 18.0125C117.247 18.7925 117.127 19.7425 117.207 20.8625C117.127 21.8625 117.257 22.7525 117.597 23.5325C117.957 24.2925 118.477 24.8825 119.157 25.3025C119.857 25.7225 120.657 25.9325 121.557 25.9325C122.457 25.9325 123.217 25.7425 123.837 25.3625C124.477 24.9825 124.977 24.4725 125.337 23.8325L128.517 25.3925C128.197 26.1725 127.697 26.8625 127.017 27.4625C126.337 28.0625 125.527 28.5325 124.587 28.8725C123.667 29.2125 122.647 29.3825 121.527 29.3825ZM130.393 29.0225L136.093 20.8325L130.363 12.7025H134.983L139.453 19.3025H137.383L141.853 12.7025H146.443L140.743 20.8325L146.413 29.0225H141.823L137.413 22.4525H139.423L135.013 29.0225H130.393Z" fill="#121212"></path><defs><clipPath id="clip0_26_30185"><rect width="40" height="30" fill="white" transform="translate(0.5 2.02246)"></rect></clipPath></defs></svg>